<svg xmlns="http://www.w3.org/2000/svg"
shape-rendering="geometricPrecision"
width="4000" height="4000" viewBox="0 0 1024 1024"><rect width="100%" height="100%" fill="#CDEAF5" />
  <metadata>null</metadata>

<path d="
M 269.07 514.995
C 268.466 535.146 269.296 555.331 268.629 575.484
C 266.525 595.457 264.712 615.889 258.937 635.243
C 248.841 669.081 228.724 704.218 196.868 721.736
C 171.994 735.414 142.162 739.569 114.672 731.659
C 73.889 719.925 43.511 677.646 46.441 635.157
C 47.304 622.654 51.328 610.675 60.155 601.577
C 62.701 598.952 65.93 596.902 69.176 595.264
C 84 587.786 100.987 590.561 112.891 602.238
C 119.324 608.548 122.984 617.855 122.6 626.851
C 122.225 635.668 119.054 644.954 123.981 653.048
C 130.463 663.698 144.297 664.781 155.149 661.132
C 171.875 655.507 182.758 637.564 187.645 621.491
C 191.774 607.909 193.682 593.593 194.416 579.454
C 194.626 575.397 196.844 567.963 193.1 565.065
C 191.964 564.186 190.234 564.236 188.885 564.433
C 185.836 564.877 182.824 565.629 179.803 566.231
C 168.962 568.393 158.358 570.215 147.259 569.858
C 128.555 569.256 108.469 563.358 93.345 552.008
C 85.551 546.158 78.913 539.334 72.599 531.947
C 46.957 501.946 46.778 460.79 46.905 423.496
C 46.949 410.664 46.869 397.831 46.865 384.998
C 46.86 373.5 46.88 362 46.845 350.502
C 46.819 341.986 46.303 333.419 48.589 325.118
C 51.62 314.119 60.183 304.347 70.73 300.07
C 79.527 296.503 91.352 296.999 99.923 300.858
C 107.869 304.435 114.913 311.95 118.804 319.68
C 122.023 326.072 122.477 333.28 122.609 340.274
C 122.74 347.184 122.716 354.092 122.75 361.003
C 122.886 388.765 122.596 416.536 122.674 444.27
C 122.703 454.289 124.14 464.5 128.414 473.622
C 131.151 479.461 135.456 484.85 141.543 487.45
C 143.877 488.447 146.333 489.292 148.841 489.717
C 152.068 490.264 155.452 490.205 158.69 489.767
C 178.908 487.03 190.743 468.211 193.7 449.309
C 195.679 436.663 195.236 423.778 195.218 411.006
C 195.192 393.173 195.117 375.339 195.108 357.506
C 195.104 348.513 194.145 338.917 195.448 330.004
C 196.441 323.208 199.405 316.466 203.557 311.006
C 212.707 298.977 229.85 293.851 244.14 298.749
C 252.074 301.468 258.844 307.341 263.303 314.358
C 265.468 317.765 267.17 321.748 267.975 325.713
C 269.571 333.564 268.806 342.032 268.82 349.996
C 268.843 363.665 268.879 377.334 268.887 391.002
C 268.913 432.335 269.575 473.654 269.07 514.995 Z"
opacity="1" fill="rgb(0,0,0)" fill-rule="evenodd" />
<path d="
M 282.504 322.113
C 282.669 317.105 284.118 311.664 286.29 307.162
C 288.367 302.859 291.304 298.953 294.827 295.723
C 298.364 292.479 302.412 289.973 306.893 288.242
C 326.05 280.841 348.236 290.996 356.178 309.707
C 358.302 314.711 359.04 320.074 358.882 325.474
C 358.734 330.555 357.464 335.136 355.434 339.755
C 353.576 343.984 350.777 347.605 347.548 350.882
C 344.302 354.177 340.444 356.769 336.267 358.738
C 332.881 360.334 329.195 361.209 325.486 361.616
C 302.517 364.14 281.743 345.217 282.504 322.113 Z"
opacity="1" fill="rgb(0,0,0)" fill-rule="evenodd" />
<path d="
M 287.443 409.609
C 287.76 405.453 288.539 401.616 290.502 397.911
C 292.872 393.437 295.699 389.1 299.845 386.061
C 317.577 373.065 344.792 380.871 352.991 401.202
C 355.212 406.71 354.359 413.219 354.368 419.005
C 354.385 429.838 354.341 440.674 354.423 451.507
C 354.645 480.834 354.863 510.174 354.692 539.5
C 354.645 547.505 354.627 555.512 354.665 563.518
C 354.693 569.279 355.143 575.026 353.714 580.67
C 352.72 584.596 350.846 588.094 348.342 591.258
C 343.969 596.784 337.293 601.845 330.32 603.524
C 313.854 607.488 294.876 599.503 289.09 582.932
C 286.773 576.295 287.4 568.798 287.35 561.891
C 287.265 549.929 287.364 537.968 287.339 526.005
C 287.286 500.173 287.256 474.342 287.291 448.509
C 287.308 435.64 286.467 422.438 287.443 409.609 Z"
opacity="1" fill="rgb(0,0,0)" fill-rule="evenodd" />
<path d="
M 373.45 400.114
C 373.586 397.227 373.832 394.216 375.062 391.562
C 376.246 389.007 377.598 386.56 379.469 384.438
C 386.078 376.944 395.069 375.741 404.507 375.522
C 412.004 375.349 419.508 375.421 427.008 375.433
C 431.509 375.44 436.009 375.422 440.509 375.416
C 446.622 375.408 452.734 375.362 458.847 375.341
C 501.907 375.198 543.263 397.707 562.567 436.901
C 564.597 441.022 566.668 445.134 568.171 449.486
C 572.773 462.814 574.722 476.989 574.166 491.036
C 573.812 499.971 571.559 509.024 568.984 517.547
C 558.44 552.441 531.788 579.183 497.406 590.956
C 487.269 594.427 476.217 596.496 465.511 596.817
C 461.501 596.937 457.467 596.618 453.48 597.065
C 451.905 597.242 450.271 597.055 448.778 597.707
C 446.658 598.633 444.811 600.647 443.456 602.479
C 441.34 605.342 440.917 609.531 440.827 612.96
C 440.681 618.468 440.81 623.995 440.813 629.504
C 440.825 649.17 440.897 668.84 440.779 688.506
C 440.75 693.388 441.099 698.615 440.202 703.431
C 438.979 709.991 435.188 716.83 429.889 720.936
C 423.78 725.671 416.934 728.953 409.074 729.244
C 391.585 729.893 374.606 715.535 373.687 697.654
C 373.421 692.461 373.666 687.211 373.623 682.01
C 373.513 668.764 373.57 655.518 373.553 642.272
C 373.508 606.739 373.438 571.189 373.551 535.657
C 373.651 503.779 373.267 471.888 373.318 440.004
C 373.339 426.734 372.824 413.368 373.45 400.114 Z
M 417.419 469.098
C 416.34 476.023 418.359 484.968 423.735 489.742
C 424.935 490.809 426.338 491.702 427.817 492.326
C 436.09 495.818 442.235 489.458 443.549 481.669
C 444.768 474.446 442.859 465.633 437.16 460.615
C 435.932 459.534 434.517 458.63 432.981 458.05
C 424.635 454.898 418.645 461.235 417.419 469.098 Z
M 435.958 513.11
C 435.62 515.819 435.942 518.518 436.694 521.135
C 437.314 523.296 438.233 525.355 439.667 527.104
C 444.706 533.249 453.602 534.026 460.82 532.021
C 465.005 530.86 469.088 528.667 473.532 528.846
C 478.963 529.065 483.482 531.725 488.556 533.233
C 494.736 535.069 501.619 534.965 506.872 530.871
C 508.376 529.699 509.569 528.228 510.539 526.596
C 511.724 524.602 512.5 522.465 512.792 520.162
C 513.396 515.413 512.448 510.249 509.712 506.241
C 507.234 502.611 503.891 499.745 501.195 496.315
C 496.081 489.806 493.021 479.341 484.687 476.077
C 482.509 475.224 480.201 474.639 477.872 474.412
C 475.474 474.179 472.971 474.089 470.612 474.664
C 460.912 477.03 455.945 486.834 449.601 493.573
C 443.947 499.58 437.065 504.245 435.958 513.11 Z
M 444.481 446.126
C 444.262 453.3 447.131 460.92 453.027 465.257
C 454.361 466.239 455.758 466.921 457.31 467.488
C 466.136 470.713 471.34 460.821 471.546 453.499
C 471.754 446.146 469.788 437.81 463.986 432.81
C 462.79 431.779 461.441 430.886 459.949 430.354
C 458.697 429.908 457.41 429.66 456.079 429.625
C 447.699 429.406 444.688 439.349 444.481 446.126 Z
M 482.979 451.115
C 482.248 458.847 485.305 469.314 494.63 469.405
C 495.976 469.418 497.448 469.244 498.715 468.769
C 505.741 466.132 509.521 457.403 510.112 450.44
C 510.76 442.81 508.191 432.455 499.284 431.492
C 497.896 431.342 496.391 431.441 495.068 431.919
C 487.701 434.577 483.666 443.844 482.979 451.115 Z
M 507.946 482.114
C 507.552 485.745 507.712 490.05 509.468 493.344
C 512.158 498.39 518.911 500.563 524.046 498.153
C 530.507 495.12 534.544 487.111 535.185 480.251
C 535.874 472.887 532.409 463.033 523.536 463.703
C 522.392 463.789 521.134 463.988 520.055 464.391
C 513.124 466.982 508.705 475.122 507.946 482.114 Z"
opacity="1" fill="rgb(0,0,0)" fill-rule="evenodd" />
<path d="
M 417.419 469.098
C 418.645 461.235 424.635 454.898 432.981 458.05
C 434.517 458.63 435.932 459.534 437.16 460.615
C 442.859 465.633 444.768 474.446 443.549 481.669
C 442.235 489.458 436.09 495.818 427.817 492.326
C 426.338 491.702 424.935 490.809 423.735 489.742
C 418.359 484.968 416.34 476.023 417.419 469.098 Z"
opacity="1" fill="rgb(241,124,18)" fill-rule="evenodd" />
<path d="
M 435.958 513.11
C 437.065 504.245 443.947 499.58 449.601 493.573
C 455.945 486.834 460.912 477.03 470.612 474.664
C 472.971 474.089 475.474 474.179 477.872 474.412
C 480.201 474.639 482.509 475.224 484.687 476.077
C 493.021 479.341 496.081 489.806 501.195 496.315
C 503.891 499.745 507.234 502.611 509.712 506.241
C 512.448 510.249 513.396 515.413 512.792 520.162
C 512.5 522.465 511.724 524.602 510.539 526.596
C 509.569 528.228 508.376 529.699 506.872 530.871
C 501.619 534.965 494.736 535.069 488.556 533.233
C 483.482 531.725 478.963 529.065 473.532 528.846
C 469.088 528.667 465.005 530.86 460.82 532.021
C 453.602 534.026 444.706 533.249 439.667 527.104
C 438.233 525.355 437.314 523.296 436.694 521.135
C 435.942 518.518 435.62 515.819 435.958 513.11 Z"
opacity="1" fill="rgb(242,123,16)" fill-rule="evenodd" />
<path d="
M 444.481 446.126
C 444.688 439.349 447.699 429.406 456.079 429.625
C 457.41 429.66 458.697 429.908 459.949 430.354
C 461.441 430.886 462.79 431.779 463.986 432.81
C 469.788 437.81 471.754 446.146 471.546 453.499
C 471.34 460.821 466.136 470.713 457.31 467.488
C 455.758 466.921 454.361 466.239 453.027 465.257
C 447.131 460.92 444.262 453.3 444.481 446.126 Z"
opacity="1" fill="rgb(241,126,19)" fill-rule="evenodd" />
<path d="
M 482.979 451.115
C 483.666 443.844 487.701 434.577 495.068 431.919
C 496.391 431.441 497.896 431.342 499.284 431.492
C 508.191 432.455 510.76 442.81 510.112 450.44
C 509.521 457.403 505.741 466.132 498.715 468.769
C 497.448 469.244 495.976 469.418 494.63 469.405
C 485.305 469.314 482.248 458.847 482.979 451.115 Z"
opacity="1" fill="rgb(241,126,18)" fill-rule="evenodd" />
<path d="
M 507.946 482.114
C 508.705 475.122 513.124 466.982 520.055 464.391
C 521.134 463.988 522.392 463.789 523.536 463.703
C 532.409 463.033 535.874 472.887 535.185 480.251
C 534.544 487.111 530.507 495.12 524.046 498.153
C 518.911 500.563 512.158 498.39 509.468 493.344
C 507.712 490.05 507.552 485.745 507.946 482.114 Z"
opacity="1" fill="rgb(242,126,19)" fill-rule="evenodd" />
<path d="
M 571.913 646.614
C 572.943 634.023 578.241 623.233 588.113 615.239
C 600.673 605.068 621.054 606.857 632.292 618
C 638.454 624.108 642.117 631.733 642.143 640.505
C 642.169 649.09 638.737 658.094 644.785 665.442
C 651.867 674.046 665.536 672.945 674.338 668.155
C 682.494 663.716 689.574 656.566 694.266 648.584
C 699.173 640.236 701.52 630.644 703.672 621.303
C 705.535 613.219 705.971 604.815 706.911 596.593
C 707.169 594.331 708.294 589.327 706.33 587.686
C 702.842 584.773 698.692 587.385 694.911 588.099
C 685.551 589.867 676.647 591.931 666.995 591.599
C 642.04 590.74 619.723 575.417 605.817 555.417
C 600.428 547.667 596.699 539.178 594.078 530.138
C 590.827 518.929 588.372 507.662 587.442 496
C 586.636 485.888 586.928 475.637 586.925 465.499
C 586.922 452.669 586.804 439.837 586.816 427.008
C 586.83 412.969 585.144 397.482 595.251 386.204
C 597.382 383.826 599.913 381.896 602.585 380.17
C 605.389 378.359 608.469 377.062 611.695 376.219
C 628.485 371.829 648.315 381.284 653.282 398.559
C 656.136 408.489 654.758 419.76 654.761 429.999
C 654.765 448.304 654.899 466.603 655.185 484.898
C 655.222 487.259 655.294 489.626 655.548 491.975
C 656.888 504.364 662.332 521.65 677.612 521.416
C 693.738 521.169 701.606 505.887 703.841 491.805
C 705.57 480.907 705.174 469.388 704.953 458.374
C 704.73 447.277 705.109 436.116 705.109 425.008
C 705.109 416.45 704.218 407.449 706 399.027
C 706.809 395.204 709.02 391.801 711.283 388.68
C 721.944 373.98 743.053 370.875 757.852 381.169
C 763.963 385.419 769.364 391.963 771.335 399.261
C 773.195 406.149 772.605 413.513 772.739 420.57
C 773.079 438.37 772.729 456.197 772.751 474.001
C 772.778 496.168 772.736 518.335 772.755 540.502
C 772.766 552.833 772.728 565.167 772.805 577.499
C 772.886 590.48 773.064 603.549 771.604 616.459
C 767.79 650.191 753.343 685.546 727.804 708.548
C 723.688 712.255 719.856 716.083 715.211 719.176
C 695.722 732.155 672.368 738.652 649.004 736.466
C 640.241 735.646 631.294 733.82 623.241 730.126
C 609.219 723.695 597.465 713.805 587.958 701.721
C 582.397 694.654 578.693 686.25 575.801 677.812
C 572.418 667.946 571.063 657.004 571.913 646.614 Z"
opacity="1" fill="rgb(0,0,0)" fill-rule="evenodd" />
<path d="
M 777.44 649.114
C 777.995 639.505 780.116 629.367 786.204 621.656
C 798.593 605.961 823.392 604.286 837.782 618.062
C 842.844 622.908 847.155 630.158 847.336 637.346
C 847.574 646.764 843.847 657.965 850.409 665.945
C 856.94 673.887 870.812 672.838 878.994 668.531
C 889.606 662.944 898.127 652.619 902.833 641.677
C 905.727 634.949 907.453 627.5 909.014 620.366
C 910.731 612.518 911.4 604.021 911.779 596.008
C 911.932 592.756 912.838 589.087 909.956 586.854
C 907.47 584.928 902.187 587.25 899.568 588.111
C 891.617 590.724 882.872 591.824 874.502 591.714
C 849.579 591.388 826.187 578.296 811.816 557.988
C 799.232 540.206 793.551 517.503 791.944 496.002
C 791.238 486.556 791.684 476.974 791.705 467.509
C 791.733 454.509 791.74 441.509 791.755 428.509
C 791.77 414.183 789.131 396.031 800.757 385.055
C 802.867 383.063 805.183 381.378 807.741 380.009
C 810.457 378.555 813.201 377.109 816.206 376.344
C 833.089 372.045 852.341 381.344 857.666 398.439
C 859.126 403.127 859.272 407.726 859.449 412.581
C 859.671 418.713 859.762 424.852 859.755 430.998
C 859.736 449.152 859.714 467.304 859.718 485.458
C 859.719 494.244 861.391 504.131 866.164 511.657
C 868.246 514.94 870.877 518.084 874.518 519.702
C 877.126 520.861 880.297 521.223 883.13 521.273
C 885.021 521.307 886.899 520.828 888.705 520.317
C 900.962 516.844 905.31 504.784 908.194 493.681
C 910.351 485.38 909.566 476.504 909.641 468.01
C 909.773 453.009 909.625 438.01 909.618 423.01
C 909.616 418.51 909.597 414.009 909.603 409.509
C 909.607 406.895 909.389 404.107 910.033 401.552
C 911.515 395.668 913.935 390.248 918.021 385.687
C 930.006 372.308 950.538 372.472 964.467 382.384
C 971.636 387.486 976.086 397.104 977.145 405.601
C 977.61 409.333 977.248 413.249 977.282 417.005
C 977.459 436.336 977.366 455.671 977.369 475.004
C 977.372 502.004 977.383 529.003 977.35 556.003
C 977.323 577.948 978.553 600.146 975.633 621.951
C 970.553 659.88 951.28 698.143 919.13 720.016
C 915.587 722.427 911.665 724.352 907.807 726.2
C 897.139 731.309 886.167 735.007 874.388 736.523
C 853.029 739.271 830.411 733.976 812.82 721.49
C 805.725 716.454 799.449 709.801 794.138 702.938
C 788.48 695.628 784.693 687.365 781.631 678.702
C 778.342 669.398 776.871 658.974 777.44 649.114 Z"
opacity="1" fill="rgb(0,0,0)" fill-rule="evenodd" />

</svg>